<svg width="909" height="908" viewBox="0 0 909 908" fill="none" xmlns="http://www.w3.org/2000/svg">
<path fill-rule="evenodd" clip-rule="evenodd" d="M473 116C473.541 116 474.081 115.993 474.619 115.978C485.284 119.208 495.33 125.039 503.761 133.47L775.162 404.87C802.498 432.207 802.498 476.529 775.162 503.865L564.868 714.159V466.368L474 556.815V792.938C492.659 805.062 505 826.09 505 850C505 873.91 492.659 894.938 474 907.062V907.453C505.609 903.304 536.149 889.087 560.434 864.802L864.802 560.434C923.381 501.855 923.381 406.881 864.802 348.302L624.868 108.368H799.868L908.868 0.36792H479.569C477.413 0.124855 475.221 0 473 0C440.967 0 415 25.9675 415 58C415 90.0325 440.967 116 473 116ZM435 907C466.48 907 492 881.48 492 850C492 818.52 466.48 793 435 793C434.666 793 434.333 793.003 434 793.009V792.786C423.301 789.561 413.221 783.721 404.766 775.266L133.365 503.865C106.029 476.529 106.029 432.207 133.365 404.87L404.766 133.47C413.221 125.015 423.301 119.175 434 115.95V115.025C414.752 102.667 402 81.0725 402 56.5C402 34.6021 412.127 15.0696 427.954 2.33069C398.779 7.52297 370.845 21.3907 348.302 43.934L43.934 348.302C-14.6447 406.881 -14.6447 501.855 43.934 560.434L348.302 864.802C367.789 884.289 391.303 897.293 416.166 903.815C420.668 905.391 425.428 906.417 430.366 906.814C431.576 907.009 432.787 907.19 434 907.355V906.991C434.333 906.997 434.666 907 435 907ZM255 521C296.421 521 330 487.421 330 446C330 404.579 296.421 371 255 371C213.579 371 180 404.579 180 446C180 487.421 213.579 521 255 521Z" fill="url(#paint0_linear_306_40)"/>
<defs>
<linearGradient id="paint0_linear_306_40" x1="0" y1="454" x2="928" y2="454" gradientUnits="userSpaceOnUse">
<stop stop-color="#F36922"/>
<stop offset="1" stop-color="#FD9C3E"/>
</linearGradient>
</defs>
</svg>
