<svg width="62" height="549" viewBox="0 0 62 549" fill="none" xmlns="http://www.w3.org/2000/svg">
<path fill-rule="evenodd" clip-rule="evenodd" d="M61.4653 270.326L39.7353 282.298V284.069H61.4653V300.091H1.90131L1.90131 275.557C1.90131 270.908 2.71295 266.893 4.3833 263.551C6.04516 260.171 8.36099 257.608 11.3411 255.912C14.237 254.233 17.4725 253.401 21.0233 253.401C25.0527 253.401 28.675 254.557 31.8567 256.869C34.7751 258.94 36.8916 261.907 38.2361 265.706L61.4653 252.169L61.4653 270.326ZM37.6693 267.193C37.5703 266.862 37.4659 266.537 37.3561 266.218C36.0709 262.491 34.0433 259.645 31.2733 257.681C28.2666 255.495 24.85 254.401 21.0233 254.401C17.634 254.401 14.5726 255.194 11.8393 256.779C9.05131 258.365 6.86464 260.77 5.27931 263.995C3.69398 267.166 2.90131 271.02 2.90131 275.557L2.90131 299.091H60.4653V285.069H38.7353V281.707L60.4653 269.735L60.4653 253.909L37.6693 267.193ZM26.2127 271.337L26.2053 271.329C25.1835 270.263 23.6968 269.669 21.5973 269.669C19.6236 269.669 18.1844 270.253 17.1533 271.329L17.1459 271.337L17.1384 271.344C16.1384 272.344 15.5453 273.955 15.5453 276.377V284.069H27.8133V276.377C27.8133 273.955 27.2203 272.344 26.2202 271.344L26.2127 271.337ZM28.8133 285.069H14.5453V276.377C14.5453 273.808 15.174 271.895 16.4313 270.637C17.6886 269.325 19.4106 268.669 21.5973 268.669C23.8933 268.669 25.67 269.325 26.9273 270.637C28.1846 271.895 28.8133 273.808 28.8133 276.377V285.069Z" fill="#828282"/>
<path fill-rule="evenodd" clip-rule="evenodd" d="M24.2153 513.207H37.0393V531.985H47.6673V510.747H60.9013V548.007H1.33731L1.33731 510.747H14.5713V531.985H24.2153L24.2153 513.207ZM13.5713 532.985V511.747H2.33731L2.33731 547.007H59.9013V511.747H48.6673V532.985H36.0393V514.207H25.2153L25.2153 532.985H13.5713ZM48.0773 469.254H60.9013L60.9013 503.644H1.33731L1.33731 487.622H48.0773V469.254ZM49.0773 488.622H2.33731L2.33731 502.644H59.9013L59.9013 470.254H49.0773V488.622ZM1.33731 448.544H60.9013V464.566H1.33731L1.33731 448.544ZM24.2153 405.582H37.0393V424.36H47.6673V403.122H60.9013V440.382H1.33731L1.33731 403.122H14.5713L14.5713 424.36H24.2153V405.582ZM13.5713 425.36L13.5713 404.122H2.33731L2.33731 439.382H59.9013V404.122H48.6673V425.36H36.0393V406.582H25.2153V425.36H13.5713ZM52.9599 394.341L52.9494 394.349C50.0855 396.453 46.6568 397.544 42.7103 397.659L41.6813 397.688V380.832L42.5793 380.74C44.5269 380.54 45.912 379.883 46.8547 378.856C47.7525 377.818 48.2413 376.431 48.2413 374.601C48.2413 372.672 47.8114 371.276 47.0647 370.304C46.2903 369.363 45.2497 368.877 43.8293 368.877C42.6676 368.877 41.7604 369.267 41.0303 370.04L41.0205 370.05L41.0104 370.06C40.1866 370.884 39.488 371.946 38.9283 373.269L38.9255 373.275L38.9226 373.282C38.3463 374.592 37.6769 376.513 36.9157 379.068L36.9128 379.078C35.7561 382.823 34.5906 385.91 33.4119 388.324C32.1899 390.826 30.3895 392.968 28.0324 394.751C25.5736 396.61 22.4187 397.495 18.6553 397.495C13.0226 397.495 8.53615 395.437 5.32124 391.289C2.08979 387.19 0.517307 381.898 0.517307 375.503C0.517307 369.003 2.08751 363.655 5.32124 359.553C8.52616 355.418 13.0191 353.225 18.6869 352.938L19.7373 352.885V370.05L18.796 370.105C17.1715 370.201 15.9982 370.782 15.1623 371.794L15.1542 371.804L15.1459 371.813C14.2386 372.857 13.7513 374.222 13.7513 375.995C13.7513 377.499 14.159 378.611 14.8905 379.428L14.9006 379.439L14.9102 379.451C15.549 380.209 16.5201 380.653 17.9993 380.653C19.4665 380.653 20.6064 379.999 21.4855 378.518C22.4658 376.867 23.5592 374.22 24.7559 370.521L24.7599 370.509C26.0245 366.77 27.2433 363.718 28.4188 361.366C29.6378 358.872 31.4055 356.732 33.7047 354.951C36.106 353.09 39.153 352.199 42.7633 352.199C46.223 352.199 49.3866 353.095 52.2293 354.892C55.0847 356.642 57.3349 359.196 58.9917 362.51C60.66 365.846 61.4753 369.75 61.4753 374.191C61.4753 378.509 60.7742 382.413 59.3506 385.886C57.9211 389.374 55.7923 392.202 52.9599 394.341ZM51.7013 355.741C49.0226 354.046 46.0433 353.199 42.7633 353.199C39.3193 353.199 36.504 354.046 34.3173 355.741C32.1306 357.436 30.4633 359.458 29.3153 361.809C28.1673 364.105 26.9646 367.112 25.7073 370.829C24.5046 374.546 23.384 377.28 22.3453 379.029C21.3066 380.778 19.858 381.653 17.9993 381.653C16.3046 381.653 15.02 381.134 14.1453 380.095C13.216 379.056 12.7513 377.69 12.7513 375.995C12.7513 374.027 13.298 372.414 14.3913 371.157C15.43 369.9 16.8786 369.216 18.7373 369.107V353.937C18.3993 353.954 18.0659 353.978 17.7373 354.009C12.8042 354.477 8.92818 356.53 6.10931 360.169C3.04797 364.05 1.51731 369.162 1.51731 375.503C1.51731 381.735 3.04797 386.792 6.10931 390.673C9.11597 394.554 13.298 396.495 18.6553 396.495C22.2633 396.495 25.188 395.648 27.4293 393.953C29.6706 392.258 31.3653 390.236 32.5133 387.885C33.6613 385.534 34.8093 382.5 35.9573 378.783C36.7226 376.214 37.406 374.246 38.0073 372.879C38.6086 371.458 39.374 370.282 40.3033 369.353C41.2326 368.369 42.408 367.877 43.8293 367.877C45.524 367.877 46.8633 368.478 47.8473 369.681C48.7766 370.884 49.2413 372.524 49.2413 374.601C49.2413 376.624 48.6946 378.264 47.6013 379.521C46.4533 380.778 44.8133 381.516 42.6813 381.735V396.659C43.019 396.649 43.3524 396.632 43.6813 396.607C47.0265 396.356 49.9185 395.335 52.3573 393.543C55.036 391.52 57.0586 388.842 58.4253 385.507C59.792 382.172 60.4753 378.4 60.4753 374.191C60.4753 369.872 59.6826 366.128 58.0973 362.957C56.512 359.786 54.38 357.381 51.7013 355.741ZM24.2153 310.77H37.0393V329.548H47.6673V308.31H60.9013V345.57H1.33731L1.33731 308.31H14.5713V329.548H24.2153V310.77ZM13.5713 330.548L13.5713 309.31H2.33731L2.33731 344.57H59.9013V309.31H48.6673V330.548H36.0393V311.77H25.2153V330.548H13.5713ZM52.9599 228.659L52.9494 228.667C50.0855 230.771 46.6568 231.863 42.7103 231.977L41.6813 232.007V215.151L42.5793 215.059C44.5266 214.859 45.9116 214.202 46.8542 213.174C47.7524 212.137 48.2413 210.75 48.2413 208.919C48.2413 206.99 47.8113 205.595 47.0645 204.622C46.2901 203.681 45.2496 203.195 43.8293 203.195C42.6676 203.195 41.7604 203.585 41.0303 204.358L41.0205 204.368L41.0104 204.378C40.1866 205.202 39.488 206.264 38.9283 207.587L38.9255 207.594L38.9226 207.6C38.3463 208.91 37.6769 210.831 36.9157 213.387L36.9128 213.396C35.7561 217.142 34.5906 220.229 33.4119 222.642C32.1899 225.144 30.3895 227.287 28.0324 229.069C25.5736 230.928 22.4187 231.813 18.6553 231.813C13.023 231.813 8.5368 229.756 5.32194 225.608C2.09002 221.509 0.517307 216.217 0.517307 209.821C0.517307 203.321 2.08774 197.973 5.32194 193.871C8.52682 189.736 13.0195 187.543 18.6869 187.257L19.7373 187.204V204.368L18.796 204.424C17.1715 204.519 15.9982 205.1 15.1623 206.112L15.1542 206.122L15.1459 206.132C14.2386 207.175 13.7513 208.541 13.7513 210.313C13.7513 211.818 14.159 212.929 14.8905 213.747L14.9006 213.758L14.9102 213.769C15.549 214.528 16.5201 214.971 17.9993 214.971C19.4665 214.971 20.6064 214.317 21.4855 212.837C22.4658 211.186 23.5592 208.538 24.7559 204.84L24.7599 204.827C26.0244 201.089 27.243 198.037 28.4185 195.685C29.6375 193.19 31.4053 191.051 33.7047 189.269C36.106 187.408 39.153 186.517 42.7633 186.517C46.2236 186.517 49.3878 187.414 52.2309 189.211C55.0855 190.961 57.3352 193.515 58.9917 196.828C60.66 200.165 61.4753 204.069 61.4753 208.509C61.4753 212.827 60.7742 216.731 59.3506 220.205C57.9211 223.693 55.7923 226.521 52.9599 228.659ZM51.7013 190.059C49.0226 188.365 46.0433 187.517 42.7633 187.517C39.3193 187.517 36.504 188.365 34.3173 190.059C32.1306 191.754 30.4633 193.777 29.3153 196.127C28.1673 198.423 26.9646 201.43 25.7073 205.147C24.5046 208.865 23.384 211.598 22.3453 213.347C21.3066 215.097 19.858 215.971 17.9993 215.971C16.3046 215.971 15.02 215.452 14.1453 214.413C13.216 213.375 12.7513 212.008 12.7513 210.313C12.7513 208.345 13.298 206.733 14.3913 205.475C15.43 204.218 16.8786 203.535 18.7373 203.425V188.255C18.3993 188.272 18.0659 188.297 17.7373 188.328C12.8042 188.795 8.92818 190.848 6.10931 194.487C3.04797 198.369 1.51731 203.48 1.51731 209.821C1.51731 216.053 3.04797 221.11 6.10931 224.991C9.11597 228.873 13.298 230.813 18.6553 230.813C22.2633 230.813 25.188 229.966 27.4293 228.271C29.6706 226.577 31.3653 224.554 32.5133 222.203C33.6613 219.853 34.8093 216.819 35.9573 213.101C36.7226 210.532 37.406 208.564 38.0073 207.197C38.6086 205.776 39.374 204.601 40.3033 203.671C41.2326 202.687 42.408 202.195 43.8293 202.195C45.524 202.195 46.8633 202.797 47.8473 203.999C48.7766 205.202 49.2413 206.842 49.2413 208.919C49.2413 210.942 48.6946 212.582 47.6013 213.839C46.4533 215.097 44.8133 215.835 42.6813 216.053V230.977C43.019 230.968 43.3524 230.95 43.6813 230.926C47.0265 230.675 49.9185 229.653 52.3573 227.861C55.036 225.839 57.0586 223.16 58.4253 219.825C59.792 216.491 60.4753 212.719 60.4753 208.509C60.4753 204.191 59.6826 200.446 58.0973 197.275C56.512 194.105 54.38 191.699 51.7013 190.059ZM1.33731 163.866H60.9013V179.888H1.33731L1.33731 163.866ZM48.0773 121.315H60.9013L60.9013 155.705H1.33731L1.33731 139.683H48.0773V121.315ZM49.0773 140.683H2.33731L2.33731 154.705H59.9013L59.9013 122.315H49.0773V140.683ZM1.33731 60.1727L60.9013 81.3001V100.261L1.33731 121.388L1.33731 104.324L42.5997 90.7777L1.33731 77.1534L1.33731 60.1727ZM45.7973 90.7805L2.33731 105.048L2.33731 119.972L59.9013 99.5544V82.0064L2.33731 61.5884L2.33731 76.4305L45.7973 90.7805ZM59.9013 16.45L49.7333 19.894L49.7333 41.378L59.9013 44.822V59.5L2.33731 38.672L2.33731 22.436L59.9013 1.608V16.45ZM50.7333 40.6609L60.9013 44.1049V60.9253L1.33731 39.3737L1.33731 21.7343L60.9013 0.182709V17.1671L50.7333 20.6111L50.7333 40.6609ZM17.8353 30.636L38.9093 37.688L38.9093 23.502L17.8353 30.636ZM20.9702 30.6305L37.9093 36.2989L37.9093 24.8963L20.9702 30.6305ZM2.33731 449.544L2.33731 463.566H59.9013V449.544H2.33731ZM2.33731 164.866L2.33731 178.888H59.9013V164.866H2.33731Z" fill="#828282"/>
</svg>
