<svg width="59" height="546" viewBox="0 0 59 546" fill="none" xmlns="http://www.w3.org/2000/svg">
<path d="M12.054 531.377H23.698L23.698 512.599H34.522V531.377H47.15V510.139H58.384V545.399H0.819998L0.819998 510.139H12.054L12.054 531.377Z" fill="#828282"/>
<path d="M47.56 487.014V468.646H58.384L58.384 501.036H0.819998L0.819998 487.014H47.56Z" fill="#828282"/>
<path d="M0.819998 447.936H58.384V461.958H0.819998L0.819998 447.936Z" fill="#828282"/>
<path d="M12.054 423.752H23.698V404.974H34.522V423.752H47.15V402.514H58.384V437.774H0.819998L0.819998 402.514H12.054L12.054 423.752Z" fill="#828282"/>
<path d="M58.958 372.583C58.958 376.792 58.2747 380.564 56.908 383.899C55.5413 387.234 53.5187 389.912 50.84 391.935C48.1613 393.903 44.936 394.942 41.164 395.051V380.127C43.296 379.908 44.936 379.17 46.084 377.913C47.1773 376.656 47.724 375.016 47.724 372.993C47.724 370.916 47.2593 369.276 46.33 368.073C45.346 366.87 44.0067 366.269 42.312 366.269C40.8907 366.269 39.7153 366.761 38.786 367.745C37.8567 368.674 37.0913 369.85 36.49 371.271C35.8887 372.638 35.2053 374.606 34.44 377.175C33.292 380.892 32.144 383.926 30.996 386.277C29.848 388.628 28.1533 390.65 25.912 392.345C23.6707 394.04 20.746 394.887 17.138 394.887C11.7807 394.887 7.59867 392.946 4.592 389.065C1.53067 385.184 0 380.127 0 373.895C0 367.554 1.53067 362.442 4.592 358.561C7.59867 354.68 11.808 352.602 17.22 352.329V367.499C15.3613 367.608 13.9127 368.292 12.874 369.549C11.7807 370.806 11.234 372.419 11.234 374.387C11.234 376.082 11.6987 377.448 12.628 378.487C13.5027 379.526 14.7873 380.045 16.482 380.045C18.3407 380.045 19.7893 379.17 20.828 377.421C21.8667 375.672 22.9873 372.938 24.19 369.221C25.4473 365.504 26.65 362.497 27.798 360.201C28.946 357.85 30.6133 355.828 32.8 354.133C34.9867 352.438 37.802 351.591 41.246 351.591C44.526 351.591 47.5053 352.438 50.184 354.133C52.8627 355.773 54.9947 358.178 56.58 361.349C58.1653 364.52 58.958 368.264 58.958 372.583Z" fill="#828282"/>
<path d="M12.054 328.94H23.698V310.162H34.522V328.94H47.15V307.702H58.384V342.962H0.819998L0.819998 307.702H12.054L12.054 328.94Z" fill="#828282"/>
<path d="M58.384 269.243L36.654 281.215V284.577H58.384V298.599H0.819998L0.819998 275.065C0.819998 270.527 1.61266 266.673 3.198 263.503C4.78333 260.277 6.97 257.872 9.758 256.287C12.4913 254.701 15.5527 253.909 18.942 253.909C22.7687 253.909 26.1853 255.002 29.192 257.189C32.1987 259.321 34.3307 262.491 35.588 266.701L58.384 253.417L58.384 269.243ZM26.732 284.577L26.732 275.885C26.732 273.315 26.1033 271.402 24.846 270.145C23.5887 268.833 21.812 268.177 19.516 268.177C17.3293 268.177 15.6073 268.833 14.35 270.145C13.0927 271.402 12.464 273.315 12.464 275.885V284.577H26.732Z" fill="#828282"/>
<path d="M58.958 206.901C58.958 211.111 58.2747 214.883 56.908 218.217C55.5413 221.552 53.5187 224.231 50.84 226.253C48.1613 228.221 44.936 229.26 41.164 229.369V214.445C43.296 214.227 44.936 213.489 46.084 212.231C47.1773 210.974 47.724 209.334 47.724 207.311C47.724 205.234 47.2593 203.594 46.33 202.391C45.346 201.189 44.0067 200.587 42.312 200.587C40.8907 200.587 39.7153 201.079 38.786 202.063C37.8567 202.993 37.0913 204.168 36.49 205.589C35.8887 206.956 35.2053 208.924 34.44 211.493C33.292 215.211 32.144 218.245 30.996 220.595C29.848 222.946 28.1533 224.969 25.912 226.663C23.6707 228.358 20.746 229.205 17.138 229.205C11.7807 229.205 7.59867 227.265 4.592 223.383C1.53067 219.502 0 214.445 0 208.213C0 201.872 1.53067 196.761 4.592 192.879C7.59867 188.998 11.808 186.921 17.22 186.647V201.817C15.3613 201.927 13.9127 202.61 12.874 203.867C11.7807 205.125 11.234 206.737 11.234 208.705C11.234 210.4 11.6987 211.767 12.628 212.805C13.5027 213.844 14.7873 214.363 16.482 214.363C18.3407 214.363 19.7893 213.489 20.828 211.739C21.8667 209.99 22.9873 207.257 24.19 203.539C25.4473 199.822 26.65 196.815 27.798 194.519C28.946 192.169 30.6133 190.146 32.8 188.451C34.9867 186.757 37.802 185.909 41.246 185.909C44.526 185.909 47.5053 186.757 50.184 188.451C52.8627 190.091 54.9947 192.497 56.58 195.667C58.1653 198.838 58.958 202.583 58.958 206.901Z" fill="#828282"/>
<path d="M0.819998 163.258H58.384V177.28H0.819998L0.819998 163.258Z" fill="#828282"/>
<path d="M47.56 139.075V120.707H58.384L58.384 153.097H0.819998L0.819998 139.075H47.56Z" fill="#828282"/>
<path d="M0.819998 59.9804L58.384 80.3984V97.9464L0.819998 118.364L0.819998 103.44L44.28 89.1725L0.819998 74.8224L0.819998 59.9804Z" fill="#828282"/>
<path d="M48.216 18.2859L48.216 39.77L58.384 43.214V57.892L0.819998 37.064L0.819998 20.828L58.384 0V14.842L48.216 18.2859ZM37.392 21.894L16.318 29.028L37.392 36.08L37.392 21.894Z" fill="#828282"/>
</svg>
